<svg viewBox="0 0 100 100"
  className="w-full h-full pointer-events-none" xmlns="http://www.w3.org/2000/svg" xmlns:xlink="http://www.w3.org/1999/xlink">
  <g id="Layer_1">
    <g>
      <linearGradient id="SVGID_2_" gradientUnits="userSpaceOnUse" x1="4" x2="94" y1="49" y2="49">
        <stop offset="0.2047" style="stop-color:#F48FB1"/>
        <stop offset="0.8442" style="stop-color:#EC407A"/>
      </linearGradient>
      <circle cx="49" cy="49" r="45" style="fill:url(#SVGID_2_);"/>
      <g style="opacity:0.2;">
        <path d="M49,7c23.16,0,42,18.84,42,42c0,23.16-18.84,42-42,42S7,72.16,7,49C7,25.84,25.84,7,49,7 M49,4 C24.15,4,4,24.15,4,49s20.15,45,45,45c24.85,0,45-20.15,45-45S73.85,4,49,4L49,4z" style="fill:#434343;"/>
      </g>
      <linearGradient id="SVGID_3_" gradientUnits="userSpaceOnUse" x1="20.5746" x2="81.9998" y1="20.9833" y2="82.4084">
        <stop offset="0" style="stop-color:#FCE4EB"/>
        <stop offset="1" style="stop-color:#F48FB1"/>
      </linearGradient>
      <path d="M78.54,23.94c-9.25-10.61-33.75-20.96-54.73-4.93C16.14,24.87,9.73,38.26,9.73,50.89 c0,6.63,1.5,12.9,4.17,18.51c-1.84-4.64-2.85-9.66-2.85-14.87c0-18.78,15.05-37.75,35.17-38.12 c23.56-0.43,34.01,15.64,34.01,30.66c0,11.13-4.78,19.25-11.99,23.82c-4.44,2.82-9.81,4.28-15.55,4.26 c-12.71-0.05-22.35-8.86-22.35-21.83c0-11.86,9.63-18.76,18.9-19.15c11.89-0.5,16.1,9.11,16.02,15.27 c-0.1,7.76-7.04,12.23-13.26,11.76c-5.42-0.41-8.69-3.88-8.51-9.64c0.13-3.88,3.76-6.76,7.13-6.76c3.75,0,6.27,2.64,6.63,5.13 c0.34,2.3-0.37,5.88-5.38,5.88c-2.03,0-3.58-1.69-3.82-2.98c-0.23-1.28-0.05-3.62,2.1-3.62c0,0-2.01,1.15-1.01,3.07 c0.54,1.03,1.32,1.26,2.23,1.28c1.53-0.13,2.73-1.31,2.73-2.77c0-1.93-1.68-3.5-3.75-3.5c-2.59,0-4.68,1.96-4.68,4.37 c0,3.02,2.37,6.65,6.53,6.82c4.86,0.2,9.82-4.36,8.93-9.82c-0.76-4.65-3.19-9.26-11.29-9.26c-6.32,0-13.63,3.95-13.63,13.03 c0,9.94,8.14,16.27,16.03,16.27c12.14,0,21.77-6.37,21.77-20.15c0-3.3-0.5-6.66-1.68-9.78c-2.07-5.48-8.62-14.71-24.79-14.9 c-15.5-0.19-28.07,12.57-28.07,28.07c0,18.25,14.39,31.95,34.22,32.04C77.67,84.1,102.47,51.37,78.54,23.94z" style="fill:url(#SVGID_3_);"/>
    </g>
  </g>
</svg>