<?xml version="1.0" encoding="utf-8"?>
<svg viewBox="291.8707580566406 81.74878692626953 241.09988403320312 239.70004272460938" width="241.09988403320312" height="239.70004272460938" xmlns="http://www.w3.org/2000/svg"><g transform="matrix(1, 0, 0, 1, -106.82926940917969, -81.95121765136719)"><g transform="matrix(1, 0, 0, 1, 0, 0)">
				<g>
					<path d="M 639.799999 210.100006 A 44.799999 46.400002 0 0 1 595 256.500008 A 44.799999 46.400002 0 0 1 550.200001 210.100006 A 44.799999 46.400002 0 0 1 595 163.700005 A 44.799999 46.400002 0 0 1 639.799999 210.100006 Z"/>
				</g>
				<g>
					<path d="M 621.799999 210.100006 A 26.799999 27.799999 0 0 1 595 237.900005 A 26.799999 27.799999 0 0 1 568.200001 210.100006 A 26.799999 27.799999 0 0 1 595 182.300007 A 26.799999 27.799999 0 0 1 621.799999 210.100006 Z" fill="#414042"/>
				</g>
				<g>
					<path d="M 488.299999 210.100006 A 44.799999 46.400002 0 0 1 443.5 256.500008 A 44.799999 46.400002 0 0 1 398.700001 210.100006 A 44.799999 46.400002 0 0 1 443.5 163.700005 A 44.799999 46.400002 0 0 1 488.299999 210.100006 Z"/>
				</g>
				<g>
					<path d="M 470.299999 210.100006 A 26.799999 27.799999 0 0 1 443.5 237.900005 A 26.799999 27.799999 0 0 1 416.700001 210.100006 A 26.799999 27.799999 0 0 1 443.5 182.300007 A 26.799999 27.799999 0 0 1 470.299999 210.100006 Z" fill="#414042"/>
				</g>
				<g>
					<path fill="#F1F2F2" d="M633.5,272.8c0,63.1-51.2,130.6-114.3,130.6s-114.3-67.5-114.3-130.6s51.2-98,114.3-98&#10;&#9;&#9;&#9;&#9;&#9;&#9;S633.5,209.7,633.5,272.8z"/>
				</g>
				<g>
					<path fill="#414042" d="M544,258.1c8.2-5.5,19.3-4.4,28.3-0.5c17.7,7.7,30.4,25.7,31.7,45c0.4,6.1-0.4,12.5-3.9,17.5&#10;&#9;&#9;&#9;&#9;&#9;&#9;c-3,4.3-7.7,7-12.6,8.9c-4.8,1.9-10.1,3.1-15.2,2.4c-5.1-0.7-10.2-3.7-12.4-8.4c-2.3-4.9-1.4-11-4.2-15.7&#10;&#9;&#9;&#9;&#9;&#9;&#9;c-2.2-3.6-6.1-5.6-9.5-8.1c-6.4-4.8-11.1-12.2-11.8-20.2C533.9,271.1,537.3,262.6,544,258.1z"/>
				</g>
				<g>
					<path fill="#414042" d="M494.4,258.1c-8.2-5.5-19.3-4.4-28.3-0.5c-17.7,7.7-30.4,25.7-31.7,45c-0.4,6.1,0.4,12.5,3.9,17.5&#10;&#9;&#9;&#9;&#9;&#9;&#9;c3,4.3,7.7,7,12.6,8.9c4.8,1.9,10.1,3.1,15.2,2.4c5.1-0.7,10.2-3.7,12.4-8.4c2.3-4.9,1.4-11,4.2-15.7c2.2-3.6,6.1-5.6,9.5-8.1&#10;&#9;&#9;&#9;&#9;&#9;&#9;c6.4-4.8,11.1-12.2,11.8-20.2C504.6,271.1,501.1,262.6,494.4,258.1z"/>
				</g>
				<g>
					<path d="M501.9,309c0-6.8,7.7-14.1,17.3-14.1c9.6,0,17.3,7.3,17.3,14.1c0,6.8-7.7,10.6-17.3,10.6&#10;&#9;&#9;&#9;&#9;&#9;&#9;C509.7,319.6,501.9,315.8,501.9,309z"/>
				</g>
				<g>
					<path d="M533.8,356.5c-1.1,0-2.2-0.1-3.2-0.2c-9.3-1.4-14.4-8.6-14.7-8.9l-0.7-1v-32.6c0-2.2,1.8-4,4-4s4,1.8,4,4v29.9&#10;&#9;&#9;&#9;&#9;&#9;&#9;c1.3,1.4,4.4,4.2,8.7,4.8c4.4,0.6,9.2-1,14.3-4.9c1.8-1.3,4.3-1,5.6,0.8c1.3,1.8,1,4.3-0.8,5.6&#10;&#9;&#9;&#9;&#9;&#9;&#9;C545.2,354.3,539.5,356.5,533.8,356.5z"/>
				</g>
				<g>
					<path d="M504.6,356.5c-5.6,0-11.4-2.2-17.2-6.6c-1.8-1.3-2.1-3.9-0.8-5.6c1.3-1.8,3.9-2.1,5.6-0.8c5.1,3.9,9.9,5.5,14.3,4.9&#10;&#9;&#9;&#9;&#9;&#9;&#9;c4.3-0.6,7.4-3.4,8.7-4.8v-29.9c0-2.2,1.8-4,4-4s4,1.8,4,4v32.6l-0.7,1c-0.2,0.3-5.4,7.5-14.7,8.9&#10;&#9;&#9;&#9;&#9;&#9;&#9;C506.7,356.5,505.7,356.5,504.6,356.5z"/>
				</g>
				<g>
					<path d="M 568.900012 280.5 A 8.7 8.7 0 0 1 560.200012 289.2 A 8.7 8.7 0 0 1 551.500012 280.5 A 8.7 8.7 0 0 1 560.200012 271.8 A 8.7 8.7 0 0 1 568.900012 280.5 Z"/>
				</g>
				<g>
					<path d="M 486.900012 280.5 A 8.7 8.7 0 0 1 478.200012 289.2 A 8.7 8.7 0 0 1 469.500012 280.5 A 8.7 8.7 0 0 1 478.200012 271.8 A 8.7 8.7 0 0 1 486.900012 280.5 Z"/>
				</g>
			</g></g></svg>